<svg width="15" height="12" viewBox="0 0 15 12" fill="none" xmlns="http://www.w3.org/2000/svg">
<path d="M14.5346 1.92843C14.0168 2.15165 13.4543 2.31236 12.8739 2.37486C13.4721 2.01772 13.9275 1.45522 14.1418 0.785575C13.5882 1.11593 12.9632 1.357 12.3114 1.482C11.7846 0.919503 11.0346 0.571289 10.2043 0.571289C8.60605 0.571289 7.32034 1.86593 7.32034 3.45522C7.32034 3.67843 7.34712 3.90165 7.39177 4.11593C4.99891 3.99093 2.86498 2.84807 1.44534 1.09807C1.19534 1.52665 1.05248 2.01772 1.05248 2.55343C1.05248 3.55343 1.56141 4.43736 2.33819 4.95522C1.86498 4.93736 1.41855 4.80343 1.03462 4.58915C1.03462 4.59807 1.03462 4.61593 1.03462 4.62486C1.03462 6.02665 2.0257 7.18736 3.34713 7.45522C3.10605 7.51772 2.84712 7.55343 2.58819 7.55343C2.40069 7.55343 2.22212 7.53557 2.04355 7.50879C2.40962 8.65165 3.47212 9.482 4.73998 9.50879C3.74891 10.2856 2.50784 10.7409 1.15962 10.7409C0.918552 10.7409 0.695339 10.732 0.463196 10.7052C1.73998 11.5266 3.25784 11.9999 4.89177 11.9999C10.1953 11.9999 13.0971 7.607 13.0971 3.7945C13.0971 3.6695 13.0971 3.5445 13.0882 3.4195C13.6507 3.00879 14.1418 2.49986 14.5346 1.92843Z" fill="#E8E8E8"/>
</svg>
