<svg width="17" height="12" viewBox="0 0 17 12" fill="none" xmlns="http://www.w3.org/2000/svg">
<path d="M6.84824 8.35707V3.866L11.1697 6.12493L6.84824 8.35707ZM8.50002 0.660645C5.13395 0.660645 2.90181 0.821359 2.90181 0.821359C2.58931 0.857073 1.90181 0.857073 1.29466 1.49993C1.29466 1.49993 0.803591 1.98207 0.660734 3.08922C0.491091 4.38386 0.50002 5.6785 0.50002 5.6785V6.89279C0.50002 6.89279 0.491091 8.18743 0.660734 9.48207C0.803591 10.5803 1.29466 11.0714 1.29466 11.0714C1.90181 11.7053 2.70538 11.6874 3.06252 11.7499C3.06252 11.7499 4.33931 11.8749 8.50002 11.9106C11.8661 11.9106 14.0982 11.741 14.0982 11.741C14.4107 11.7053 15.0982 11.7053 15.7054 11.0714C15.7054 11.0714 16.1964 10.5803 16.3393 9.48207C16.509 8.18743 16.5 6.89279 16.5 6.89279V5.6785C16.5 5.6785 16.509 4.38386 16.3393 3.08922C16.1964 1.98207 15.7054 1.49993 15.7054 1.49993C15.0982 0.857073 14.4107 0.857073 14.0982 0.821359C14.0982 0.821359 11.8661 0.660645 8.50002 0.660645Z" fill="#E8E8E8"/>
</svg>
