<svg width="21" height="26" viewBox="0 0 21 26" fill="none" xmlns="http://www.w3.org/2000/svg">
<path d="M20.5 12.5166C20.5 15.6821 20.5019 18.8471 20.4991 22.0126C20.4981 23.4456 19.6721 24.5934 18.3769 24.9405C18.0883 25.0176 17.7794 25.0447 17.4794 25.0452C14.8052 25.0528 8.6304 25.0533 5.95621 25.0486C4.19664 25.0452 2.96309 23.8169 2.94935 22.0526C2.93987 20.8438 2.94745 19.635 2.94745 18.4262C2.94745 18.3829 2.94698 18.3391 2.95124 18.2958C2.98678 17.9392 3.23368 17.7073 3.56446 17.7192C3.8924 17.7307 4.12603 17.9792 4.12792 18.3415C4.13266 19.246 4.12982 20.1501 4.12982 21.0547C4.12982 21.368 4.12935 21.6807 4.12982 21.994C4.13172 23.1547 4.83782 23.8683 5.98701 23.8688C8.53136 23.8698 14.5763 23.8703 17.1207 23.8674C17.3794 23.8669 17.6419 23.8693 17.8964 23.8303C18.6997 23.7074 19.2911 23.0214 19.311 22.2044C19.32 21.8393 19.3138 21.4741 19.3138 21.109C19.3138 15.0827 19.3143 9.05643 19.3134 3.03017C19.3134 2.15275 18.8561 1.48575 18.0917 1.26914C17.9031 1.21581 17.6998 1.19392 17.5031 1.19344C14.8208 1.19011 8.63751 1.1901 5.95479 1.19201C4.85204 1.19296 4.13219 1.9147 4.13029 3.01874C4.1284 4.24465 4.13077 5.47105 4.12887 6.69696C4.1284 7.05021 3.97154 7.27255 3.68388 7.34539C3.36969 7.42489 3.06166 7.24827 2.98062 6.93262C2.95503 6.83312 2.9484 6.72648 2.9484 6.62317C2.9465 5.42296 2.94224 4.22323 2.9484 3.02302C2.95598 1.5205 3.86491 0.356957 5.26338 0.0651175C5.49843 0.0160809 5.74438 0.0041788 5.98559 0.00370272C8.64225 -0.000582033 14.8 -0.00105478 17.4566 0.00180172C18.9717 0.00322997 20.1024 0.875891 20.4204 2.29748C20.4806 2.56599 20.4957 2.84926 20.4962 3.12539C20.5019 6.25564 20.5 9.38636 20.5 12.5166Z" fill="#EBE7E5"/>
<path d="M11.2757 13.205C11.1246 13.205 11.0302 13.205 10.9355 13.205C8.39112 13.205 3.25408 13.1421 0.709265 13.1412C0.298398 13.1412 0.0709281 12.9831 0.0112173 12.6646C-0.0532325 12.3214 0.166181 12.0152 0.511651 11.9743C0.623016 11.961 0.736277 11.9638 0.848591 11.9638C3.34128 11.9633 8.42619 12.0267 10.9189 12.0267C11.0198 12.0267 11.1208 12.0267 11.2876 12.0267C11.0881 11.7849 10.9322 11.594 10.7739 11.405C10.5066 11.0855 10.2336 10.7708 9.97062 10.448C9.71803 10.1381 9.73604 9.79248 10.0047 9.56872C10.2701 9.34782 10.6222 9.39162 10.8748 9.68965C11.5819 10.5237 12.2861 11.3602 12.9879 12.1981C13.2173 12.4719 13.2249 12.7366 13.0045 12.9999C12.2974 13.8454 11.5847 14.6857 10.8743 15.5279C10.7042 15.7297 10.4957 15.8283 10.2303 15.755C10 15.6916 9.82371 15.5345 9.82087 15.3051C9.8185 15.116 9.88532 14.8899 10.0005 14.7418C10.3668 14.2686 10.7696 13.8244 11.1577 13.3688C11.189 13.3312 11.2151 13.2893 11.2757 13.205Z" fill="#EBE7E5"/>
</svg>
