<svg width="74" height="93" viewBox="0 0 74 93" fill="none" xmlns="http://www.w3.org/2000/svg">
<g clip-path="url(#clip0_25_466)" filter="url(#filter0_d_25_466)">
<path d="M69.51 84.96H4V38.66H69.51V84.96ZM7.47 81.5H66.04V42.13H7.47V81.5Z" fill="#4FFFCA"/>
<path d="M35.81 33.8801L23.88 21.9401L26.33 19.4901L32.34 25.5101V4.18005H35.81V33.8801Z" fill="#4FFFCA"/>
<path d="M42.5399 29.69H39.0699V0L51.0099 11.93L48.5499 14.39L42.5399 8.37V29.69Z" fill="#4FFFCA"/>
<path d="M69.5099 69.22H57.5699C53.2999 69.22 49.8199 65.74 49.8199 61.47V58.7C49.8199 54.43 53.2999 50.95 57.5699 50.95H69.5099V69.22ZM57.5699 54.4199C55.2099 54.4199 53.2899 56.34 53.2899 58.7V61.4799C53.2899 63.8399 55.2099 65.76 57.5699 65.76H66.0399V54.4199H57.5699Z" fill="#4FFFCA"/>
</g>
<defs>
<filter id="filter0_d_25_466" x="0" y="0" width="73.51" height="92.96" filterUnits="userSpaceOnUse" color-interpolation-filters="sRGB">
<feFlood flood-opacity="0" result="BackgroundImageFix"/>
<feColorMatrix in="SourceAlpha" type="matrix" values="0 0 0 0 0 0 0 0 0 0 0 0 0 0 0 0 0 0 127 0" result="hardAlpha"/>
<feOffset dy="4"/>
<feGaussianBlur stdDeviation="2"/>
<feComposite in2="hardAlpha" operator="out"/>
<feColorMatrix type="matrix" values="0 0 0 0 0 0 0 0 0 0 0 0 0 0 0 0 0 0 0.25 0"/>
<feBlend mode="normal" in2="BackgroundImageFix" result="effect1_dropShadow_25_466"/>
<feBlend mode="normal" in="SourceGraphic" in2="effect1_dropShadow_25_466" result="shape"/>
</filter>
<clipPath id="clip0_25_466">
<rect width="65.51" height="84.96" fill="white" transform="translate(4)"/>
</clipPath>
</defs>
</svg>
