<svg width="15" height="14" viewBox="0 0 15 14" fill="none" xmlns="http://www.w3.org/2000/svg">
<path d="M3.7567 4.86586H0.810267V13.7141H3.7567V4.86586ZM3.9442 2.13372C3.93527 1.26765 3.31027 0.606934 2.30134 0.606934C1.30134 0.606934 0.640625 1.26765 0.640625 2.13372C0.640625 2.98193 1.27455 3.66051 2.26562 3.66051H2.28348C3.31027 3.66051 3.95313 2.98193 3.9442 2.13372ZM14.3549 8.64265C14.3549 5.92836 12.9085 4.66051 10.971 4.66051C9.3817 4.66051 8.68527 5.54443 8.30134 6.15158H8.3192V4.86586H5.3817C5.3817 4.86586 5.41741 5.69622 5.3817 13.7141H8.3192V8.77658C8.3192 8.50872 8.34598 8.24979 8.41741 8.05336C8.6317 7.52658 9.11384 6.98193 9.92634 6.98193C10.9888 6.98193 11.4174 7.79443 11.4174 8.98193V13.7141H14.3549V8.64265Z" fill="#5474FD"/>
</svg>
