<svg width="14" height="14" viewBox="0 0 14 14" fill="none" xmlns="http://www.w3.org/2000/svg">
<path d="M13.8549 7.28585C13.8549 3.50014 10.7835 0.428711 6.99777 0.428711C3.21205 0.428711 0.140625 3.50014 0.140625 7.28585C0.140625 10.0984 1.82813 12.5091 4.24777 13.5716C4.22991 13.0894 4.23884 12.5091 4.36384 11.9912C4.36384 11.9912 4.49777 11.4376 5.24777 8.25907C5.02455 7.82157 5.02455 7.16978 5.02455 7.16978C5.02455 6.15193 5.61384 5.393 6.34598 5.393C6.97098 5.393 7.27455 5.86621 7.27455 6.42871C7.27455 7.05371 6.87277 7.99121 6.66741 8.85728C6.49777 9.58943 7.03348 10.1787 7.74777 10.1787C9.05134 10.1787 9.92634 8.50907 9.92634 6.53585C9.92634 5.02693 8.90848 3.90193 7.0692 3.90193C4.98884 3.90193 3.6942 5.4555 3.6942 7.18764C3.6942 7.78585 3.87277 8.2055 4.14955 8.53585C4.27455 8.68764 4.29241 8.74121 4.24777 8.91978C4.21205 9.04478 4.14063 9.34835 4.10491 9.46443C4.06027 9.643 3.91741 9.7055 3.76562 9.643C2.81027 9.25014 2.36384 8.19657 2.36384 7.018C2.36384 5.07157 4.0067 2.73228 7.2567 2.73228C9.8817 2.73228 11.6049 4.63407 11.6049 6.66085C11.6049 9.35728 10.1049 11.3662 7.89955 11.3662C7.15848 11.3662 6.46205 10.9644 6.22991 10.5091C5.82813 12.0894 5.74777 12.393 5.74777 12.393C5.60491 12.9198 5.31027 13.4466 5.05134 13.8573C5.67634 14.0448 6.3192 14.143 6.99777 14.143C10.7835 14.143 13.8549 11.0716 13.8549 7.28585Z" fill="#E8E8E8"/>
</svg>
